<svg width="22" height="22" viewBox="0 0 22 22" fill="none" xmlns="http://www.w3.org/2000/svg">
<path d="M15.4183 1.83337H6.58167C4.62917 1.83337 3.04333 3.42837 3.04333 5.37171V18.2875C3.04333 19.9375 4.22584 20.6342 5.67417 19.8367L10.1475 17.3525C10.6242 17.0867 11.3942 17.0867 11.8617 17.3525L16.335 19.8367C17.7833 20.6434 18.9658 19.9467 18.9658 18.2875V5.37171C18.9567 3.42837 17.3708 1.83337 15.4183 1.83337ZM13.2917 10.45H8.70834C8.3325 10.45 8.02084 10.1384 8.02084 9.76254C8.02084 9.38671 8.3325 9.07504 8.70834 9.07504H13.2917C13.6675 9.07504 13.9792 9.38671 13.9792 9.76254C13.9792 10.1384 13.6675 10.45 13.2917 10.45Z" fill="#585858"/>
</svg>
