<svg width="22" height="22" viewBox="0 0 22 22" fill="none" xmlns="http://www.w3.org/2000/svg">
<g id="Iconsax/Outline/card">
<path id="Vector" d="M20.1667 8.47919H1.83334C1.45751 8.47919 1.14584 8.16752 1.14584 7.79169C1.14584 7.41585 1.45751 7.10419 1.83334 7.10419H20.1667C20.5425 7.10419 20.8542 7.41585 20.8542 7.79169C20.8542 8.16752 20.5425 8.47919 20.1667 8.47919ZM7.33334 15.8125H5.50001C5.12418 15.8125 4.81251 15.5009 4.81251 15.125C4.81251 14.7492 5.12418 14.4375 5.50001 14.4375H7.33334C7.70918 14.4375 8.02084 14.7492 8.02084 15.125C8.02084 15.5009 7.70918 15.8125 7.33334 15.8125ZM13.2917 15.8125H9.62501C9.24918 15.8125 8.93751 15.5009 8.93751 15.125C8.93751 14.7492 9.24918 14.4375 9.62501 14.4375H13.2917C13.6675 14.4375 13.9792 14.7492 13.9792 15.125C13.9792 15.5009 13.6675 15.8125 13.2917 15.8125Z" fill="#585858"/>
<path id="Vector_2" d="M16.0967 19.4791H5.90334C2.25501 19.4791 1.14584 18.3791 1.14584 14.7675V7.23248C1.14584 3.62081 2.25501 2.52081 5.90334 2.52081H16.0875C19.7358 2.52081 20.845 3.62081 20.845 7.23248V14.7583C20.8542 18.3791 19.745 19.4791 16.0967 19.4791ZM5.90334 3.89581C3.02501 3.89581 2.52084 4.39081 2.52084 7.23248V14.7583C2.52084 17.6 3.02501 18.095 5.90334 18.095H16.0875C18.9658 18.095 19.47 17.6 19.47 14.7583V7.23248C19.47 4.39081 18.9658 3.89581 16.0875 3.89581H5.90334Z" fill="#585858"/>
</g>
</svg>
