<svg width="4" height="13" viewBox="0 0 4 13" fill="none" xmlns="http://www.w3.org/2000/svg">
<path d="M1.78327 3.67C1.46594 3.67933 1.18127 3.59067 0.929274 3.404C0.686607 3.21733 0.49994 2.98867 0.369273 2.718C0.24794 2.438 0.201273 2.172 0.229273 1.92C0.27594 1.53733 0.448607 1.26667 0.747273 1.108C1.04594 0.949333 1.35861 0.865333 1.68527 0.855999C2.15194 0.837333 2.51594 0.958666 2.77727 1.22C3.03861 1.48133 3.16927 1.78 3.16927 2.116C3.16927 2.34 3.11794 2.56867 3.01527 2.802C2.92194 3.03533 2.77261 3.236 2.56727 3.404C2.36194 3.56267 2.10061 3.65133 1.78327 3.67ZM3.26727 10.586C3.27661 10.754 3.32794 10.8987 3.42127 11.02C3.52394 11.132 3.64527 11.2393 3.78527 11.342C3.71994 11.426 3.63594 11.5147 3.53327 11.608C3.43061 11.7013 3.27661 11.79 3.07127 11.874C2.87527 11.9487 2.59061 12.0093 2.21727 12.056C2.09594 12.0653 1.94194 12.0513 1.75527 12.014C1.56861 11.986 1.38194 11.8973 1.19527 11.748C1.01794 11.5893 0.873274 11.342 0.761273 11.006C0.649273 10.6607 0.602607 10.1893 0.621274 9.592C0.630607 9.48933 0.630607 9.28867 0.621274 8.99C0.621274 8.69133 0.616607 8.33667 0.607273 7.926C0.607273 7.51533 0.602607 7.09067 0.593273 6.652C0.593273 6.21333 0.588607 5.80733 0.579273 5.434C0.579273 5.05133 0.574607 4.74333 0.565274 4.51C0.565274 4.26733 0.565274 4.146 0.565274 4.146C0.649273 4.13667 0.789273 4.12733 0.985274 4.118C1.19061 4.09933 1.41461 4.09933 1.65727 4.118C1.89994 4.13667 2.13327 4.18333 2.35727 4.258C2.59061 4.32333 2.78661 4.43067 2.94527 4.58C3.11327 4.72933 3.21127 4.93 3.23927 5.182C3.28594 5.53667 3.30461 6.01267 3.29527 6.61C3.28594 7.198 3.27194 7.842 3.25327 8.542C3.23461 9.23267 3.23927 9.914 3.26727 10.586Z" fill="black"/>
</svg>
