<svg width="32" height="32" viewBox="0 0 32 32" fill="none" xmlns="http://www.w3.org/2000/svg">
<g id="Iconsax/Linear/messagequestion">
<path id="Vector" d="M22.6667 24.5733H17.3333L11.4 28.52C11.1997 28.6535 10.967 28.7301 10.7267 28.7417C10.4863 28.7533 10.2473 28.6994 10.0351 28.5858C9.82298 28.4722 9.64564 28.3031 9.52205 28.0966C9.39845 27.8901 9.33322 27.654 9.33332 27.4133V24.5733C5.33332 24.5733 2.66666 21.9067 2.66666 17.9067V9.90666C2.66666 5.90666 5.33332 3.23999 9.33332 3.23999H22.6667C26.6667 3.23999 29.3333 5.90666 29.3333 9.90666V17.9067C29.3333 21.9067 26.6667 24.5733 22.6667 24.5733Z" stroke="black" stroke-opacity="0.7" stroke-width="2.5" stroke-miterlimit="10" stroke-linecap="round" stroke-linejoin="round"/>
<path id="Vector_2" d="M16 15.1466V14.8666C16 13.9599 16.56 13.4799 17.12 13.0933C17.6667 12.7199 18.2133 12.2399 18.2133 11.3599C18.2133 10.1333 17.2267 9.14661 16 9.14661C14.7733 9.14661 13.7867 10.1333 13.7867 11.3599M15.9933 18.3333H16.0067" stroke="black" stroke-opacity="0.7" stroke-width="2.5" stroke-linecap="round" stroke-linejoin="round"/>
</g>
</svg>
