<svg width="21" height="21" viewBox="0 0 21 21" fill="none" xmlns="http://www.w3.org/2000/svg">
<g id="Iconsax/Linear/notification">
<path id="Vector" d="M10.5175 2.54626C7.62124 2.54626 5.26749 4.90001 5.26749 7.79626V10.325C5.26749 10.8588 5.03999 11.6725 4.76874 12.1275L3.76249 13.7988C3.14124 14.8313 3.56999 15.9775 4.70749 16.3625C8.47874 17.6225 12.5475 17.6225 16.3187 16.3625C17.3775 16.0125 17.8412 14.7613 17.2637 13.7988L16.2575 12.1275C15.995 11.6725 15.7675 10.8588 15.7675 10.325V7.79626C15.7675 4.90876 13.405 2.54626 10.5175 2.54626Z" stroke="#313131" stroke-width="1.5" stroke-miterlimit="10" stroke-linecap="round"/>
<path id="Vector_2" d="M12.1362 2.80001C11.0781 2.49865 9.95687 2.49865 8.89874 2.80001C9.15249 2.15251 9.78249 1.69751 10.5175 1.69751C11.2525 1.69751 11.8825 2.15251 12.1362 2.80001Z" stroke="#313131" stroke-width="1.5" stroke-miterlimit="10" stroke-linecap="round" stroke-linejoin="round"/>
<path id="Vector_3" d="M13.1425 16.6775C13.1425 18.1212 11.9612 19.3025 10.5175 19.3025C9.79999 19.3025 9.13499 19.005 8.66249 18.5325C8.17087 18.0401 7.89406 17.3733 7.89249 16.6775" stroke="#313131" stroke-width="1.5" stroke-miterlimit="10"/>
</g>
</svg>
