<svg width="21" height="21" viewBox="0 0 21 21" fill="none" xmlns="http://www.w3.org/2000/svg">
<g id="Iconsax/Linear/setting">
<path id="Vector" d="M2.625 7.97125V13.02C2.625 14.875 2.625 14.875 4.375 16.0563L9.1875 18.8388C9.91375 19.2588 11.095 19.2588 11.8125 18.8388L16.625 16.0563C18.375 14.875 18.375 14.875 18.375 13.0288V7.97125C18.375 6.125 18.375 6.125 16.625 4.94375L11.8125 2.16125C11.095 1.74125 9.91375 1.74125 9.1875 2.16125L4.375 4.94375C2.625 6.125 2.625 6.125 2.625 7.97125Z" stroke="black" stroke-opacity="0.8" stroke-width="1.5" stroke-linecap="round" stroke-linejoin="round"/>
<path id="Vector_2" d="M10.5 13.125C11.1962 13.125 11.8639 12.8484 12.3562 12.3562C12.8484 11.8639 13.125 11.1962 13.125 10.5C13.125 9.80381 12.8484 9.13613 12.3562 8.64384C11.8639 8.15156 11.1962 7.875 10.5 7.875C9.80381 7.875 9.13613 8.15156 8.64384 8.64384C8.15156 9.13613 7.875 9.80381 7.875 10.5C7.875 11.1962 8.15156 11.8639 8.64384 12.3562C9.13613 12.8484 9.80381 13.125 10.5 13.125Z" stroke="black" stroke-opacity="0.8" stroke-width="1.5" stroke-linecap="round" stroke-linejoin="round"/>
</g>
</svg>
