<svg width="22" height="22" viewBox="0 0 22 22" fill="none" xmlns="http://www.w3.org/2000/svg">
<g id="Iconsax/Outline/arrangeverticalsquare">
<path id="Vector" d="M13.75 20.8541H8.25001C3.27251 20.8541 1.14584 18.7275 1.14584 13.75V8.24998C1.14584 3.27248 3.27251 1.14581 8.25001 1.14581H13.75C18.7275 1.14581 20.8542 3.27248 20.8542 8.24998V13.75C20.8542 18.7275 18.7275 20.8541 13.75 20.8541ZM8.25001 2.52081C4.02418 2.52081 2.52084 4.02415 2.52084 8.24998V13.75C2.52084 17.9758 4.02418 19.4791 8.25001 19.4791H13.75C17.9758 19.4791 19.4792 17.9758 19.4792 13.75V8.24998C19.4792 4.02415 17.9758 2.52081 13.75 2.52081H8.25001Z" fill="#585858"/>
<path id="Vector_2" d="M9.33168 16.4083C9.15751 16.4083 8.98335 16.3442 8.84585 16.2067L6.05918 13.42C5.93132 13.2906 5.85962 13.1161 5.85962 12.9342C5.85962 12.7523 5.93132 12.5777 6.05918 12.4483C6.32501 12.1825 6.76501 12.1825 7.03085 12.4483L9.81751 15.235C10.0833 15.5008 10.0833 15.9408 9.81751 16.2067C9.75502 16.2722 9.67954 16.324 9.59588 16.3588C9.51222 16.3935 9.42224 16.4104 9.33168 16.4083Z" fill="#585858"/>
<path id="Vector_3" d="M9.33167 16.4083C8.95583 16.4083 8.64417 16.0967 8.64417 15.7208V6.27917C8.64417 5.90334 8.95583 5.59167 9.33167 5.59167C9.7075 5.59167 10.0192 5.90334 10.0192 6.27917V15.73C10.0192 16.1058 9.71667 16.4083 9.33167 16.4083ZM15.455 9.75334C15.2808 9.75334 15.1067 9.68917 14.9692 9.55167L12.1825 6.76501C12.0546 6.63563 11.9829 6.46107 11.9829 6.27917C11.9829 6.09728 12.0546 5.92272 12.1825 5.79334C12.4483 5.52751 12.8883 5.52751 13.1542 5.79334L15.9408 8.58001C16.2067 8.84584 16.2067 9.28584 15.9408 9.55167C15.8033 9.68001 15.6292 9.75334 15.455 9.75334Z" fill="#585858"/>
<path id="Vector_4" d="M12.6683 16.4083C12.2925 16.4083 11.9808 16.0967 11.9808 15.7208V6.27917C11.9808 5.90334 12.2925 5.59167 12.6683 5.59167C13.0442 5.59167 13.3558 5.90334 13.3558 6.27917V15.73C13.3558 16.1058 13.0442 16.4083 12.6683 16.4083Z" fill="#585858"/>
</g>
</svg>
