<svg width="24" height="24" viewBox="0 0 24 24" fill="none" xmlns="http://www.w3.org/2000/svg">
<g id="Iconsax/Bold/discountshape">
<path id="Vector" d="M21.529 10.869L20.009 9.349C19.749 9.089 19.539 8.579 19.539 8.219V6.059C19.539 5.179 18.819 4.459 17.939 4.459H15.789C15.429 4.459 14.919 4.249 14.659 3.989L13.139 2.469C12.519 1.849 11.499 1.849 10.879 2.469L9.33903 3.989C9.08903 4.249 8.57903 4.459 8.20903 4.459H6.05903C5.17903 4.459 4.45903 5.179 4.45903 6.059V8.209C4.45903 8.569 4.24903 9.079 3.98903 9.339L2.46903 10.859C1.84903 11.479 1.84903 12.499 2.46903 13.119L3.98903 14.639C4.24903 14.899 4.45903 15.409 4.45903 15.769V17.919C4.45903 18.799 5.17903 19.519 6.05903 19.519H8.20903C8.56903 19.519 9.07903 19.729 9.33903 19.989L10.859 21.509C11.479 22.129 12.499 22.129 13.119 21.509L14.639 19.989C14.899 19.729 15.409 19.519 15.769 19.519H17.919C18.799 19.519 19.519 18.799 19.519 17.919V15.769C19.519 15.409 19.729 14.899 19.989 14.639L21.509 13.119C22.159 12.509 22.159 11.489 21.529 10.869ZM7.99903 8.999C7.99903 8.449 8.44903 7.999 8.99903 7.999C9.54903 7.999 9.99903 8.449 9.99903 8.999C9.99903 9.549 9.55903 9.999 8.99903 9.999C8.44903 9.999 7.99903 9.549 7.99903 8.999ZM9.52903 15.529C9.37903 15.679 9.18903 15.749 8.99903 15.749C8.80903 15.749 8.61903 15.679 8.46903 15.529C8.32955 15.3879 8.25133 15.1974 8.25133 14.999C8.25133 14.8006 8.32955 14.6101 8.46903 14.469L14.469 8.469C14.759 8.179 15.239 8.179 15.529 8.469C15.819 8.759 15.819 9.239 15.529 9.529L9.52903 15.529ZM14.999 15.999C14.439 15.999 13.989 15.549 13.989 14.999C13.989 14.449 14.439 13.999 14.989 13.999C15.539 13.999 15.989 14.449 15.989 14.999C15.989 15.549 15.549 15.999 14.999 15.999Z" fill="black" fill-opacity="0.75"/>
</g>
</svg>
