<svg width="15" height="15" viewBox="0 0 15 15" fill="none" xmlns="http://www.w3.org/2000/svg">
<path d="M9.87059 15H9.77546C6.52645 15 4.96049 13.722 4.68974 10.8593C4.66047 10.5599 4.87999 10.2897 5.18733 10.2605C5.48004 10.2313 5.75811 10.4576 5.78738 10.7571C5.99959 13.0501 7.08259 13.9046 9.78278 13.9046H9.87791C12.8562 13.9046 13.9099 12.853 13.9099 9.88072V5.11927C13.9099 2.14703 12.8562 1.09542 9.87791 1.09542H9.78278C7.06795 1.09542 5.98495 1.96446 5.78738 4.30136C5.75079 4.60077 5.49467 4.82716 5.18733 4.79795C4.87999 4.77604 4.66047 4.50584 4.68242 4.20642C4.93122 1.2999 6.5045 0 9.77546 0H9.87059C13.4635 0 15.0002 1.53359 15.0002 5.11927V9.88072C15.0002 13.4664 13.4635 15 9.87059 15Z" fill="#292D32"/>
<path d="M9.69359 8.04794H1.3662C1.06618 8.04794 0.817383 7.79961 0.817383 7.50014C0.817383 7.20067 1.06618 6.95233 1.3662 6.95233H9.69359C9.99361 6.95233 10.2424 7.20067 10.2424 7.50014C10.2424 7.79961 9.99361 8.04794 9.69359 8.04794Z" fill="#292D32"/>
<path d="M2.99838 10.4942C2.85935 10.4942 2.72031 10.4431 2.61055 10.3335L0.159158 7.88708C-0.0530525 7.6753 -0.0530525 7.32476 0.159158 7.11298L2.61055 4.66653C2.82276 4.45475 3.17401 4.45475 3.38622 4.66653C3.59843 4.87831 3.59843 5.22884 3.38622 5.44063L1.32265 7.50003L3.38622 9.55942C3.59843 9.7712 3.59843 10.1217 3.38622 10.3335C3.28377 10.4431 3.13742 10.4942 2.99838 10.4942Z" fill="#292D32"/>
</svg>
