<svg width="62" height="10" viewBox="0 0 62 10" fill="none" xmlns="http://www.w3.org/2000/svg">
<path d="M0.00179688 10V0.705H1.7438L6.0468 3.721H6.1118L10.4148 0.705H12.1568V10H10.0768V3.305L7.1258 5.281V10H5.0458V5.281L2.0818 3.305V10H0.00179688ZM13.9793 10V0.730999L21.8053 0.705C22.8367 0.705 23.5993 0.921666 24.0933 1.355C24.596 1.77967 24.8473 2.421 24.8473 3.279C24.8473 4.137 24.5613 4.76533 23.9893 5.164C24.3707 5.372 24.6523 5.64933 24.8343 5.996C25.0163 6.334 25.1073 6.77167 25.1073 7.309C25.1073 8.18433 24.856 8.85167 24.3533 9.311C23.8593 9.76167 23.0967 9.987 22.0653 9.987L13.9793 10ZM21.5583 2.369H16.0593V4.449H21.5583C22.347 4.449 22.7413 4.09367 22.7413 3.383C22.7413 2.707 22.347 2.369 21.5583 2.369ZM21.8183 6.113H16.0593V8.323H21.8183C22.607 8.323 23.0013 7.95033 23.0013 7.205C23.0013 6.477 22.607 6.113 21.8183 6.113ZM25.755 10L29.941 0.705H33.152L37.338 10H35.076L34.192 8.037H28.901L28.017 10H25.755ZM29.655 6.347H33.438L31.631 2.33H31.462L29.655 6.347ZM38.3797 10V0.705H40.4857L47.0637 7.387V0.705H49.1437V10H47.0377L40.4597 3.305V10H38.3797ZM50.9608 10V0.730999H53.0408V4.514H56.1348L59.1898 0.730999H61.7768L57.9548 5.359L61.7768 10H59.1898L56.1218 6.204H53.0408V10H50.9608Z" fill="white"/>
</svg>
