<svg width="22" height="22" viewBox="0 0 22 22" fill="none" xmlns="http://www.w3.org/2000/svg">
<path d="M8.24999 1.83337C5.84833 1.83337 3.89583 3.78587 3.89583 6.18754C3.89583 8.54337 5.73833 10.45 8.13999 10.5325C8.21333 10.5234 8.28666 10.5234 8.34166 10.5325H8.40583C9.53274 10.4949 10.6009 10.0206 11.3843 9.2097C12.1678 8.39885 12.6053 7.31508 12.6042 6.18754C12.6042 3.78587 10.6517 1.83337 8.24999 1.83337ZM12.9067 12.97C10.3492 11.265 6.17833 11.265 3.60249 12.97C2.43833 13.7491 1.79666 14.8033 1.79666 15.9308C1.79666 17.0583 2.43833 18.1033 3.59333 18.8733C4.87666 19.735 6.56333 20.1658 8.24999 20.1658C9.93666 20.1658 11.6233 19.735 12.9067 18.8733C14.0617 18.0941 14.7033 17.0491 14.7033 15.9125C14.6942 14.785 14.0617 13.74 12.9067 12.97ZM18.3242 6.72654C18.4708 8.50487 17.2058 10.0632 15.455 10.274H15.4092C15.3542 10.274 15.2992 10.274 15.2533 10.2924C14.3642 10.3382 13.5483 10.054 12.9342 9.53154C13.8783 8.68821 14.4192 7.42321 14.3092 6.04821C14.2463 5.33321 14.0034 4.64576 13.6033 4.04987C14.0837 3.8162 14.6136 3.70289 15.1475 3.71971C15.6814 3.73653 16.2032 3.88299 16.6678 4.14645C17.1325 4.4099 17.5261 4.78245 17.8146 5.23194C18.1032 5.68144 18.2781 6.19439 18.3242 6.72654Z" fill="#585858"/>
<path d="M19.6691 15.2075C19.5957 16.0967 19.0274 16.8667 18.0741 17.3892C17.1574 17.8934 16.0024 18.1317 14.8566 18.1042C15.5166 17.5084 15.9016 16.7659 15.9749 15.9775C16.0666 14.8409 15.5257 13.75 14.4441 12.8792C13.8299 12.3934 13.1149 12.0084 12.3357 11.7242C14.3616 11.1375 16.9099 11.5317 18.4774 12.7967C19.3207 13.475 19.7516 14.3275 19.6691 15.2075Z" fill="#585858"/>
</svg>
