<svg width="17" height="17" viewBox="0 0 17 17" fill="none" xmlns="http://www.w3.org/2000/svg">
<g clip-path="url(#clip0_103_560)">
<path d="M15.5833 15.5834L14.1667 14.1667M8.14582 14.8751C9.02951 14.8751 9.90454 14.701 10.721 14.3629C11.5374 14.0247 12.2792 13.529 12.9041 12.9042C13.5289 12.2793 14.0246 11.5375 14.3628 10.7211C14.7009 9.90463 14.875 9.0296 14.875 8.14591C14.875 7.26223 14.7009 6.38719 14.3628 5.57077C14.0246 4.75435 13.5289 4.01254 12.9041 3.38768C12.2792 2.76281 11.5374 2.26715 10.721 1.92898C9.90454 1.5908 9.02951 1.41675 8.14582 1.41675C6.36114 1.41675 4.64955 2.12571 3.38758 3.38768C2.12562 4.64964 1.41666 6.36123 1.41666 8.14591C1.41666 9.9306 2.12562 11.6422 3.38758 12.9042C4.64955 14.1661 6.36114 14.8751 8.14582 14.8751Z" stroke="black" stroke-opacity="0.8" stroke-width="1.5" stroke-linecap="round" stroke-linejoin="round"/>
</g>
<defs>
<clipPath id="clip0_103_560">
<rect width="17" height="17" fill="white"/>
</clipPath>
</defs>
</svg>
