<svg width="24" height="24" viewBox="0 0 24 24" fill="none" xmlns="http://www.w3.org/2000/svg">
<g id="Iconsax/Linear/unlimited">
<path id="Vector" d="M10.18 9.32001C9.76576 8.74126 9.21941 8.26968 8.58634 7.94445C7.95327 7.61922 7.25173 7.44971 6.54001 7.45001C4.03001 7.45001 1.99001 9.49001 1.99001 12C1.99001 14.51 4.03001 16.55 6.54001 16.55C8.23001 16.55 9.80001 15.66 10.67 14.21L12 12L13.32 9.79001C13.7481 9.07683 14.3534 8.48652 15.0771 8.07649C15.8007 7.66645 16.6182 7.45063 17.45 7.45001C19.96 7.45001 22 9.49001 22 12C22 14.51 19.96 16.55 17.45 16.55C15.95 16.55 14.64 15.81 13.81 14.68" stroke="black" stroke-width="3" stroke-linecap="round" stroke-linejoin="round"/>
</g>
</svg>
