<svg width="33" height="33" viewBox="0 0 33 33" fill="none" xmlns="http://www.w3.org/2000/svg">
<path d="M32.2678 14.4215L30.0236 11.8152C29.5946 11.3203 29.2481 10.3965 29.2481 9.73669V6.93239C29.2481 5.18383 27.8125 3.74869 26.0634 3.74869H23.2582C22.6147 3.74869 21.6741 3.40227 21.1791 2.97338L18.5719 0.729942C17.4334 -0.243314 15.5688 -0.243314 14.4137 0.729942L11.823 2.98988C11.3279 3.40227 10.3874 3.74869 9.74384 3.74869H6.88916C5.14006 3.74869 3.70447 5.18383 3.70447 6.93239V9.75318C3.70447 10.3965 3.35795 11.3203 2.94543 11.8152L0.717793 14.438C-0.239264 15.5762 -0.239264 17.4238 0.717793 18.562L2.94543 21.1848C3.35795 21.6797 3.70447 22.6035 3.70447 23.2468V26.0676C3.70447 27.8162 5.14006 29.2513 6.88916 29.2513H9.74384C10.3874 29.2513 11.3279 29.5977 11.823 30.0266L14.4302 32.2701C15.5688 33.2433 17.4334 33.2433 18.5884 32.2701L21.1956 30.0266C21.6906 29.5977 22.6147 29.2513 23.2747 29.2513H26.0799C27.829 29.2513 29.2646 27.8162 29.2646 26.0676V23.2633C29.2646 22.62 29.6111 21.6797 30.0401 21.1848L32.2843 18.5785C33.2413 17.4403 33.2413 15.5597 32.2678 14.4215ZM23.3572 13.3823L15.3872 21.3498C15.1562 21.5807 14.8427 21.7127 14.5127 21.7127C14.1827 21.7127 13.8691 21.5807 13.6381 21.3498L9.64483 17.3578C9.1663 16.8794 9.1663 16.0876 9.64483 15.6092C10.1234 15.1309 10.9154 15.1309 11.3939 15.6092L14.5127 18.727L21.6081 11.6337C22.0866 11.1553 22.8787 11.1553 23.3572 11.6337C23.8357 12.1121 23.8357 12.9039 23.3572 13.3823Z" fill="white"/>
</svg>
