<svg width="29" height="10" viewBox="0 0 29 10" fill="none" xmlns="http://www.w3.org/2000/svg">
<path d="M3.22513 9H1.22113L0.213125 0.912H2.00113L2.36113 4.764C2.44513 5.616 2.50513 6.408 2.55313 7.248H2.57713C2.87713 6.456 3.26113 5.592 3.65713 4.752L5.46913 0.912H7.40113L3.22513 9ZM10.1171 0.912H11.8451L10.3091 9H8.58106L10.1171 0.912ZM13.482 8.544L14.058 7.128C14.538 7.416 15.222 7.644 15.966 7.644C16.638 7.644 17.25 7.332 17.25 6.696C17.25 6.24 16.902 5.94 16.158 5.556C15.294 5.088 14.478 4.464 14.478 3.408C14.478 1.776 15.906 0.779999 17.67 0.779999C18.654 0.779999 19.23 0.995999 19.578 1.188L19.038 2.628C18.774 2.484 18.198 2.256 17.526 2.268C16.722 2.268 16.302 2.676 16.302 3.12C16.302 3.588 16.794 3.876 17.478 4.26C18.462 4.776 19.086 5.436 19.086 6.396C19.086 8.196 17.598 9.12 15.798 9.12C14.67 9.12 13.866 8.832 13.482 8.544ZM26.1169 6.9H23.7889L22.8289 9H20.9929L24.9289 0.912H27.1489L28.0969 9H26.2849L26.1169 6.9ZM24.2929 5.58H26.0449L25.8889 3.84C25.8529 3.396 25.8049 2.748 25.7689 2.256H25.7449C25.5409 2.748 25.3129 3.372 25.0969 3.84L24.2929 5.58Z" fill="white"/>
</svg>
